<svg width="24" height="24" viewBox="0 0 24 24" fill="none" xmlns="http://www.w3.org/2000/svg">
<path d="M3 8.68907C3 7.82507 3.933 7.28307 4.683 7.71207L11.791 11.7731C11.9633 11.8714 12.1065 12.0136 12.2061 12.1852C12.3058 12.3568 12.3582 12.5517 12.3582 12.7501C12.3582 12.9485 12.3058 13.1434 12.2061 13.3149C12.1065 13.4865 11.9633 13.6287 11.791 13.7271L4.683 17.7881C4.5119 17.8858 4.31812 17.9369 4.12107 17.9362C3.92402 17.9355 3.73061 17.8831 3.5602 17.7842C3.38978 17.6852 3.24833 17.5433 3.15002 17.3725C3.05171 17.2017 2.99998 17.0081 3 16.8111V8.68907ZM12.75 8.68907C12.75 7.82507 13.683 7.28307 14.433 7.71207L21.541 11.7731C21.7133 11.8714 21.8565 12.0136 21.9562 12.1852C22.0558 12.3568 22.1082 12.5517 22.1082 12.7501C22.1082 12.9485 22.0558 13.1434 21.9562 13.3149C21.8565 13.4865 21.7133 13.6287 21.541 13.7271L14.433 17.7881C14.2619 17.8858 14.0681 17.9369 13.8711 17.9362C13.674 17.9355 13.4806 17.8831 13.3102 17.7842C13.1398 17.6852 12.9983 17.5433 12.9 17.3725C12.8017 17.2017 12.75 17.0081 12.75 16.8111V8.68907Z" stroke="black" stroke-width="2" stroke-linecap="round" stroke-linejoin="round"/>
</svg>
