<svg width="24" height="24" viewBox="0 0 24 24" fill="none" xmlns="http://www.w3.org/2000/svg">
<path d="M21 7.5V18M15 7.5V18M3 16.811V8.69C3 7.826 3.933 7.284 4.683 7.713L11.791 11.774C11.9633 11.8724 12.1065 12.0146 12.2062 12.1861C12.3058 12.3577 12.3582 12.5526 12.3582 12.751C12.3582 12.9494 12.3058 13.1443 12.2062 13.3159C12.1065 13.4874 11.9633 13.6296 11.791 13.728L4.683 17.789C4.51182 17.8868 4.31796 17.9379 4.12082 17.9371C3.92369 17.9364 3.73021 17.8839 3.55976 17.7848C3.38932 17.6858 3.24789 17.5437 3.14965 17.3728C3.05141 17.2019 2.9998 17.0081 3 16.811Z" stroke="black" stroke-width="2" stroke-linecap="round" stroke-linejoin="round"/>
</svg>
