<svg width="24" height="24" viewBox="0 0 24 24" fill="none" xmlns="http://www.w3.org/2000/svg">
<path d="M21.0001 16.8111C21.0001 17.6751 20.0671 18.2171 19.3171 17.7881L12.2091 13.7271C12.0368 13.6287 11.8936 13.4865 11.7939 13.315C11.6943 13.1434 11.6418 12.9485 11.6418 12.7501C11.6418 12.5517 11.6943 12.3568 11.7939 12.1852C11.8936 12.0137 12.0368 11.8715 12.2091 11.7731L19.3171 7.7121C19.4882 7.61437 19.682 7.56328 19.879 7.56397C20.0761 7.56466 20.2695 7.61709 20.4399 7.71602C20.6103 7.81495 20.7518 7.9569 20.8501 8.12768C20.9484 8.29845 21.0001 8.49205 21.0001 8.6891V16.8111ZM11.2501 16.8111C11.2501 17.6751 10.3171 18.2171 9.56709 17.7881L2.45909 13.7271C2.28678 13.6287 2.14356 13.4865 2.04394 13.315C1.94432 13.1434 1.89185 12.9485 1.89185 12.7501C1.89185 12.5517 1.94432 12.3568 2.04394 12.1852C2.14356 12.0137 2.28678 11.8715 2.45909 11.7731L9.56709 7.7121C9.73819 7.61437 9.93196 7.56328 10.129 7.56397C10.3261 7.56466 10.5195 7.61709 10.6899 7.71602C10.8603 7.81495 11.0018 7.9569 11.1001 8.12768C11.1984 8.29845 11.2501 8.49205 11.2501 8.6891V16.8111Z" stroke="black" stroke-width="2" stroke-linecap="round" stroke-linejoin="round"/>
</svg>
