<svg width="34" height="34" viewBox="0 0 34 34" fill="none" xmlns="http://www.w3.org/2000/svg">
<path d="M29.091 17.0001C29.091 23.6777 23.6777 29.091 17.0001 29.091C10.3225 29.091 4.90918 23.6777 4.90918 17.0001C4.90918 10.3225 10.3225 4.90918 17.0001 4.90918C23.6777 4.90918 29.091 10.3225 29.091 17.0001ZM8.50916 17.0001C8.50916 21.6895 12.3107 25.491 17.0001 25.491C21.6895 25.491 25.491 21.6895 25.491 17.0001C25.491 12.3107 21.6895 8.50916 17.0001 8.50916C12.3107 8.50916 8.50916 12.3107 8.50916 17.0001Z" fill="#97989C"/>
<path d="M16.2533 17.7926V18.7065H11.2558L11.2177 18.0163L14.2067 13.3329H15.1253L14.1305 15.0368L12.4123 17.7926H16.2533ZM15.3871 13.3329V20.2629H14.24V13.3329H15.3871Z" fill="#97989C"/>
<path d="M21.7934 17.7926V18.7065H16.7959L16.7578 18.0163L19.7468 13.3329H20.6654L19.6707 15.0368L17.9525 17.7926H21.7934ZM20.9272 13.3329V20.2629H19.7801V13.3329H20.9272Z" fill="#97989C"/>
</svg>
