<svg width="34" height="34" viewBox="0 0 34 34" fill="none" xmlns="http://www.w3.org/2000/svg">
<path d="M15.1234 20.34H13.6806V17.6585H4.99484V20.34H3.55203V13.66H4.99484V16.3034H13.6806V13.66H15.1234V20.34Z" fill="#97989C"/>
<path d="M23.3752 17C23.3752 17.4771 23.2878 17.9257 23.1129 18.3455C22.938 18.7591 22.6944 19.1249 22.3821 19.443C22.0761 19.7547 21.7076 20.0028 21.2766 20.1873C20.8519 20.3654 20.3865 20.4545 19.8806 20.4545C19.3747 20.4545 18.9094 20.3654 18.4847 20.1873C18.0599 20.0028 17.6914 19.7579 17.3791 19.4525C17.0731 19.1408 16.8326 18.7781 16.6577 18.3646C16.4891 17.9447 16.4048 17.4962 16.4048 17.0191V17C16.4048 16.5228 16.4922 16.0775 16.6671 15.664C16.842 15.2441 17.0824 14.8783 17.3885 14.5666C17.7008 14.2485 18.0693 14.0003 18.494 13.8222C18.925 13.6377 19.3934 13.5455 19.8994 13.5455C20.4053 13.5455 20.8706 13.6377 21.2953 13.8222C21.72 14.0003 22.0854 14.2453 22.3915 14.557C22.7038 14.8624 22.9442 15.225 23.1129 15.6449C23.2878 16.0584 23.3752 16.5038 23.3752 16.9809V17ZM21.8668 17.0191V17C21.8668 16.7137 21.8169 16.4433 21.7169 16.1888C21.6232 15.9344 21.4858 15.7117 21.3047 15.5208C21.1298 15.33 20.9206 15.1805 20.677 15.0723C20.4334 14.9578 20.1679 14.9006 19.8806 14.9006C19.5871 14.9006 19.3185 14.9546 19.0749 15.0628C18.8376 15.1709 18.6314 15.3204 18.4565 15.5113C18.2879 15.7022 18.1536 15.9248 18.0537 16.1793C17.96 16.4274 17.9132 16.6946 17.9132 16.9809V17C17.9132 17.2863 17.96 17.5567 18.0537 17.8111C18.1536 18.0656 18.291 18.2883 18.4659 18.4791C18.6471 18.67 18.8563 18.8227 19.0936 18.9372C19.3372 19.0453 19.6058 19.0994 19.8994 19.0994C20.1867 19.0994 20.4521 19.0453 20.6957 18.9372C20.9393 18.829 21.1454 18.6795 21.3141 18.4887C21.4889 18.2978 21.6232 18.0783 21.7169 17.8302C21.8169 17.5757 21.8668 17.3054 21.8668 17.0191Z" fill="#97989C"/>
<path d="M30.4479 15.9884C30.4479 16.3765 30.3792 16.7169 30.2418 17.0095C30.1044 17.3022 29.9139 17.5471 29.6703 17.7443C29.433 17.9416 29.1519 18.0911 28.8271 18.1929C28.5086 18.2883 28.1651 18.336 27.7966 18.336H26.0979V20.34H24.6551V13.66H27.9371C28.3306 13.66 28.6804 13.7172 28.9864 13.8318C29.2987 13.9399 29.561 14.0958 29.7734 14.2994C29.992 14.5029 30.1575 14.7479 30.2699 15.0342C30.3886 15.3141 30.4479 15.6258 30.4479 15.9694V15.9884ZM28.9864 16.0171V15.998C28.9864 15.6672 28.8802 15.4159 28.6679 15.2441C28.4617 15.0723 28.1776 14.9864 27.8153 14.9864H26.0979V17.0286H27.8434C28.2057 17.0286 28.4867 16.9332 28.6866 16.7423C28.8865 16.5451 28.9864 16.3034 28.9864 16.0171Z" fill="#97989C"/>
</svg>
