<svg width="34" height="34" viewBox="0 0 34 34" fill="none" xmlns="http://www.w3.org/2000/svg">
<path d="M23.0454 16.136H10.9545C10.0006 16.136 9.22726 16.9093 9.22726 17.8633V23.9087C9.22726 24.8627 10.0006 25.636 10.9545 25.636H23.0454C23.9994 25.636 24.7727 24.8627 24.7727 23.9087V17.8633C24.7727 16.9093 23.9994 16.136 23.0454 16.136Z" fill="#97989C" stroke="#97989C" stroke-width="1.72727" stroke-linecap="round" stroke-linejoin="round"/>
<path d="M12.6818 16.136V12.6815C12.6818 11.5362 13.1367 10.4379 13.9466 9.62805C14.7564 8.81823 15.8547 8.36328 17 8.36328C18.1452 8.36328 19.2436 8.81823 20.0534 9.62805C20.8632 10.4379 21.3182 11.5362 21.3182 12.6815V16.136" stroke="#97989C" stroke-width="1.72727" stroke-linecap="round" stroke-linejoin="round"/>
</svg>
