<svg width="250" height="253" viewBox="0 0 250 253" fill="none" xmlns="http://www.w3.org/2000/svg">
<path d="M130.956 236.685C114.126 236.685 99.4746 233.616 87.0009 227.478C74.7252 221.341 65.0234 212.827 57.8956 201.937C50.7677 191.047 46.6098 178.376 45.4219 163.922L78.3881 161.843C79.7741 171.743 82.645 180.157 87.0009 187.087C91.3568 193.819 97.1976 198.967 104.523 202.531C112.047 205.897 121.056 207.58 131.55 207.58C140.658 207.58 148.379 206.491 154.715 204.313C161.249 201.937 166.199 198.472 169.565 193.918C172.931 189.364 174.614 183.82 174.614 177.287C174.614 171.347 173.129 166.1 170.159 161.546C167.387 156.794 161.942 152.537 153.824 148.775C145.904 144.815 134.223 140.954 118.779 137.193C101.95 133.035 88.4858 128.481 78.3881 123.531C68.2903 118.581 60.9645 112.443 56.4106 105.117C52.0547 97.5935 49.8768 88.3867 49.8768 77.4969C49.8768 65.4192 52.7477 54.8265 58.4896 45.7187C64.4294 36.4129 72.8442 29.1861 83.734 24.0382C94.6237 18.8903 107.691 16.3164 122.937 16.3164C138.975 16.3164 152.636 19.2863 163.922 25.2262C175.406 31.166 184.415 39.2839 190.948 49.5796C197.68 59.8754 201.838 71.6561 203.422 84.9218L170.456 86.7037C169.466 78.5859 166.991 71.4581 163.031 65.3202C159.071 58.9844 153.725 54.1335 146.993 50.7676C140.262 47.2037 132.045 45.4217 122.343 45.4217C110.067 45.4217 100.366 48.2926 93.2377 54.0345C86.3079 59.5784 82.843 67.0032 82.843 76.309C82.843 82.2488 84.2289 87.2977 87.0009 91.4556C89.9708 95.4155 95.1187 98.8804 102.445 101.85C109.968 104.82 120.561 107.988 134.223 111.354C152.438 115.512 166.892 120.66 177.584 126.798C188.473 132.738 196.195 139.766 200.749 147.884C205.303 156.002 207.58 165.209 207.58 175.505C207.58 187.978 204.313 198.868 197.779 208.174C191.443 217.282 182.534 224.31 171.05 229.26C159.566 234.21 146.201 236.685 130.956 236.685Z" fill="white"/>
</svg>
