<svg width="34" height="34" viewBox="0 0 34 34" fill="none" xmlns="http://www.w3.org/2000/svg">
<path d="M18.9482 27.2328C21.1858 28.0741 23.9248 27.8772 26.2341 26.6778C26.2878 26.642 26.431 26.5704 26.4489 26.5525C26.4489 26.5525 26.4668 26.5167 26.4131 26.3198L25.5717 23.5092C23.7637 25.3531 21.5081 26.6062 18.9482 27.2328Z" fill="#97989C"/>
<path d="M10.122 6.73534C10.1041 6.71744 10.0682 6.73534 10.0503 6.73534C8.63612 8.04216 5.27063 12.8756 7.1861 16.6707C7.40092 17.0824 7.65155 17.4584 7.95587 17.7985C7.54414 14.8268 8.65403 11.6404 10.9275 9.25946L10.2115 6.84275C10.1936 6.82485 10.1578 6.75324 10.122 6.73534Z" fill="#97989C"/>
<path d="M23.8546 12.3025C24.0873 11.2821 24.0694 10.2975 23.783 9.43823C23.228 7.71968 21.7064 6.60979 19.4866 6.28756C16.2285 6.01904 13.0957 7.34375 10.8759 9.88577C8.76355 12.3204 7.88638 15.489 8.51293 18.3711C9.85555 19.4989 11.8963 20.0718 14.1161 19.9643C13.4896 17.655 14.4742 15.0772 16.6581 13.3229C18.8958 11.5506 21.6885 11.1568 23.8546 12.3025Z" fill="#97989C"/>
<path d="M6.90119 20.1429C7.0623 20.0713 7.27711 19.9639 7.56353 20.1787C7.58144 20.1966 7.70675 20.304 7.81416 20.3935L7.97528 20.5367C9.62222 21.9331 11.8599 22.667 14.205 22.5954C14.6168 22.5775 15.0106 22.5596 15.4044 22.5059C15.5476 22.488 15.6909 22.4701 15.8341 22.4522C16.0668 22.4164 16.3174 22.3806 16.5322 22.3269C16.7112 22.2911 16.8902 22.2553 17.0514 22.2016C17.2304 22.1658 17.3915 22.1121 17.5705 22.0584C17.7674 22.0047 17.9822 21.9331 18.1792 21.8615C18.2866 21.8256 18.394 21.7898 18.4835 21.754C21.4014 20.662 23.4959 18.6034 24.6595 16.3836C24.7132 16.2941 24.7669 16.1867 24.8027 16.0972C24.8564 15.9718 24.9281 15.8465 24.9818 15.7212C25.1966 15.22 25.3756 14.7008 25.483 14.1817C25.5009 14.128 25.5188 14.0743 25.5188 14.0206C25.5904 13.7341 25.6262 13.4477 25.662 13.1613C25.662 13.1434 25.662 13.1434 25.662 13.1255C25.6978 12.8391 25.7157 12.5705 25.7157 12.2841C25.7157 12.2304 25.7157 12.1946 25.7157 12.1409C25.7157 11.9261 25.6978 11.7113 25.6799 11.5144C25.662 11.2995 25.6262 11.0668 25.5725 10.852C25.5725 10.8162 25.5546 10.7625 25.5546 10.7267C25.2503 9.49148 24.57 8.41738 23.5496 7.62972C23.4064 7.52231 23.2632 7.4328 23.1021 7.32539C23.0126 7.27169 22.9231 7.21798 22.8157 7.16428C23.4422 7.71922 23.9256 8.41738 24.1941 9.24086C24.5163 10.2612 24.5163 11.4606 24.1941 12.678C23.6928 14.5218 22.4934 16.312 20.8107 17.7441C18.3403 19.8565 14.5988 20.8411 11.484 20.2145C9.28209 19.767 7.59935 18.5855 6.72217 16.849C5.45116 14.3428 6.34623 11.4069 7.54564 9.22295C4.7709 13.0897 5.07523 17.6904 6.70427 20.1787L6.90119 20.1429Z" fill="#97989C"/>
<path d="M5.73538 21.181C5.66378 21.2168 5.61006 21.2526 5.59216 21.2884C5.59216 21.3063 5.59217 21.3779 5.66377 21.4854C7.04219 23.4545 9.53052 24.8508 12.5201 25.3521L12.5738 25.2984C12.8244 25.012 13.1287 24.9762 13.3614 24.9941C14.1312 25.0478 14.8473 25.0657 15.5454 25.012C17.6041 24.8688 20.6474 24.1885 23.4758 21.8255C23.9413 21.4317 24.3888 21.002 24.7826 20.5366C27.4679 17.4396 28.1302 13.3043 26.4475 10.2611C25.982 9.40181 25.4092 8.70365 24.7647 8.1308C26.2327 9.86725 26.6444 12.3914 25.7851 15.0229C24.532 18.9075 20.4505 22.8996 14.2207 23.0786C11.7324 23.1502 9.40521 22.3804 7.68666 20.9125L7.52554 20.7693C7.43603 20.6798 7.32863 20.6082 7.31073 20.5724C7.27493 20.5545 7.25702 20.5366 7.23912 20.5366C7.22122 20.5366 7.18542 20.5545 7.13171 20.5724L5.73538 21.181Z" fill="#97989C"/>
<path d="M28.5064 14.7019C28.3811 13.0013 27.8441 11.4618 26.9311 10.1549C28.6317 13.3593 27.9157 17.6378 25.1409 20.8422C24.7292 21.3255 24.2638 21.773 23.7804 22.1848C20.8983 24.6015 17.1927 25.7651 13.3259 25.4608C13.308 25.4608 13.2901 25.4608 13.2722 25.4608C13.0932 25.4608 12.9858 25.5503 12.9321 25.604L12.1981 26.4454C12.0728 26.5886 12.0728 26.6602 12.0728 26.6781C12.0728 26.696 12.1265 26.7318 12.216 26.7497C16.0827 27.7343 20.4507 26.875 23.6551 24.5299C26.9669 22.1132 28.775 18.4434 28.5064 14.7019Z" fill="#97989C"/>
</svg>
